<svg xmlns="http://www.w3.org/2000/svg" viewBox="0 0 678.4 241.3"><defs><style>.\34 1ec773e-e17f-4bb3-8c75-1ba6fefc9b1e{fill:#878787;}.\37 84cd28c-b9cf-46de-a405-d8f6ae92759d{fill:#76b82a;}</style></defs><title>netID</title><g id="16d8d40f-b19b-4a03-96b1-e92141617f5e" data-name="Ebene 2"><g id="85c9dfc9-90aa-4460-ae56-027cba4b5c2d" data-name="Ebene 1"><path class="41ec773e-e17f-4bb3-8c75-1ba6fefc9b1e" d="M331.8,173.4V129.9c.1-11.5-7.4-18.5-17.4-18.7s-18.7,8.2-18.7,20.1v42.1H278.8V120.9c0-8.8-.3-11.2-7.8-10.7V99.3c10.7-2,23.2-2.7,23.2,11.5,4.1-9.4,15.5-12.9,25.1-12.9,20.1,0,29.3,13.8,29.3,32v43.5Z"/><path class="41ec773e-e17f-4bb3-8c75-1ba6fefc9b1e" d="M381.5,127.6h40.8c.5-11.2-8.7-17-19.3-17s-19.2,5.4-21.5,17m54.3,11.9H381.2c0,13.5,10.6,21.5,24.1,21.5a57.9,57.9,0,0,0,26.8-4.7l2.2,12.5a71.4,71.4,0,0,1-27.9,6.3c-24.4.4-42.4-15.2-41.6-40.2S383,97.7,403.1,97.7c26,0,37.6,17.2,32.7,41.8"/><path class="41ec773e-e17f-4bb3-8c75-1ba6fefc9b1e" d="M477.7,99.6h25.7v11.9H477.7v33.3c0,18.9,9.1,20.1,24.3,14.8l1.7,12.6c-25.3,7.8-42.4,2-42.4-27.1V111.5l-15-1V99.6h15L463,76.7h14.7Z"/><polygon class="41ec773e-e17f-4bb3-8c75-1ba6fefc9b1e" points="567.4 159 567.4 173.4 515.5 173.4 515.5 159 532.5 159 532.5 80.2 516.9 80.2 516.9 65.9 566 65.9 566 80.2 550.3 80.2 550.3 159 567.4 159"/><path class="41ec773e-e17f-4bb3-8c75-1ba6fefc9b1e" d="M625.6,157.1c22.2,0,35-17.2,35-37.4s-12.9-37.5-34.9-37.5H604.8v74.9Zm.3-91c33.4,0,52.5,25.2,52.5,53.4s-18.8,53.9-52.5,53.9H587V66.1Z"/><polygon class="784cd28c-b9cf-46de-a405-d8f6ae92759d" points="114.3 67.6 129.7 52.6 158.7 81.6 240.8 0 255.7 14.6 158.3 112 114.3 67.6"/><path class="41ec773e-e17f-4bb3-8c75-1ba6fefc9b1e" d="M232.3,66,219.8,78.5c7.1,23.6,5.5,42-19.2,66.7L171.8,174,67.3,69.4,96.2,40.5C127,9.8,152.5,12,182.2,30.3l11.5-11.5C157-6.3,122.4-7.8,84.8,29.7L0,114.6,126.7,241.3l84.8-84.9c31.4-31.3,33.8-58.6,20.8-90.4"/></g></g></svg>